<svg width="110" height="135" viewBox="0 0 110 135" fill="none" xmlns="http://www.w3.org/2000/svg">
<path d="M35.0039 37.1992C34.2539 37.1992 33.5312 37.4961 33 38.0273C32.4687 38.5625 32.168 39.2812 32.168 40.0351V79.9651C32.1719 81.5276 33.4414 82.7971 35.0078 82.801H74.9958C75.7458 82.801 76.4685 82.5042 76.9997 81.9729C77.5309 81.4378 77.8317 80.719 77.8317 79.9651V40.0351C77.8278 38.4687 76.5583 37.2031 74.9919 37.1992H35.0039ZM65.4609 53.8242V53.8203C65.4609 54.0664 65.3632 54.3047 65.1875 54.4805C65.0156 54.6563 64.7773 54.7539 64.5312 54.7539C64.2812 54.7539 64.0468 54.6563 63.871 54.4805C63.6953 54.3047 63.5976 54.0664 63.5976 53.8203V50.5351C63.5976 49.4531 62.7187 48.5742 61.6367 48.5742H55.9297V59.0702H61.6367C63.7461 59.0702 65.457 60.7811 65.4609 62.8944V69.4647C65.457 71.5741 63.7461 73.285 61.6367 73.2889H55.9297V76.8162C55.9336 77.0623 55.836 77.3006 55.6602 77.4764C55.4844 77.6522 55.2461 77.7498 55 77.7498C54.7539 77.7498 54.5156 77.6522 54.3399 77.4764C54.1641 77.3006 54.0664 77.0623 54.0703 76.8162V73.2889H48.3633C46.2539 73.285 44.543 71.5741 44.5391 69.4647V66.1795C44.5391 65.9295 44.6368 65.6951 44.8126 65.5194C44.9845 65.3436 45.2227 65.2459 45.4688 65.2459C45.7188 65.2459 45.9532 65.3436 46.129 65.5194C46.3048 65.6951 46.4024 65.9295 46.4024 66.1795V69.4647C46.4024 70.5467 47.2813 71.4256 48.3633 71.4256H54.0703V60.9296H48.3633C46.2539 60.9296 44.543 59.2187 44.5391 57.1054V50.5351C44.543 48.4257 46.2539 46.7148 48.3633 46.7109H54.0703V43.1836C54.0664 42.9375 54.1641 42.6992 54.3398 42.5235C54.5156 42.3477 54.7539 42.25 55 42.25C55.2461 42.25 55.4844 42.3477 55.6602 42.5235C55.8359 42.6992 55.9336 42.9375 55.9297 43.1836V46.7109H61.6367C63.7461 46.7148 65.457 48.4257 65.4609 50.5351V53.8242Z" fill="black"/>
<path d="M55.9297 71.4262H61.6367C62.7187 71.4262 63.5976 70.5473 63.5976 69.4653V62.895C63.5976 61.8091 62.7187 60.9341 61.6367 60.9302H55.9297V71.4262Z" fill="black"/>
<path d="M46.4023 50.5351V57.1054C46.4023 58.1913 47.2813 59.0663 48.3632 59.0702H54.0702V48.5742H48.3632C47.2812 48.5742 46.4023 49.4531 46.4023 50.5351Z" fill="black"/>
<path d="M21.9219 79.926V42.938H19.4766V79.926C19.4805 84.0549 21.1211 88.0119 24.043 90.934C26.961 93.852 30.918 95.4926 35.047 95.5004H72.113V93.0551H35.047C27.8009 93.0473 21.9299 87.1722 21.9219 79.926Z" fill="black"/>
<path d="M88.0777 40.0739V77.0619H90.523V40.0739C90.5191 35.945 88.8785 31.988 85.9566 29.0659C83.0386 26.1479 79.0816 24.5073 74.9526 24.4995H37.8906V26.9448H74.9526C82.1987 26.9526 88.0697 32.8277 88.0777 40.0739Z" fill="black"/>
<path d="M21.8984 41.059V36.4965H25.0976V41.059H27.539V36.4965H30.2226C30.5468 36.4965 30.8593 36.3676 31.0898 36.1372C31.3164 35.9106 31.4453 35.5981 31.4453 35.2739V32.5903H36.0078V30.145H31.4453V26.9458H36.0078V24.5005H31.4453V21.3052H36.0078V18.8599H31.4453V16.1763C31.4453 15.8521 31.3164 15.5396 31.0898 15.3091C30.8593 15.0825 30.5468 14.9536 30.2226 14.9536H27.539V10.3911H25.0937V14.9536H21.8984V10.3911H19.4531V14.9536H16.2539V10.3911H13.8086V14.9536H11.125C10.8008 14.9536 10.4922 15.0825 10.2617 15.3091C10.0313 15.5396 9.90234 15.8521 9.90234 16.1763V18.8599H5.33984V21.3052H9.90234V24.5044L5.33984 24.5005V26.9458H9.90234V30.145H5.33984V32.5903H9.90234V35.2739C9.90234 35.5981 10.0313 35.9106 10.2617 36.1371C10.4922 36.3676 10.8008 36.4965 11.125 36.4965H13.8086V41.059H16.2539V36.4965H19.4531V41.059L21.8984 41.059ZM14.0625 32.3363V19.1133H27.2855V32.3363H14.0625Z" fill="black"/>
<path d="M17.168 20.9922H15.9453V30.4531H25.4062V20.9922H17.168Z" fill="black"/>
<path d="M103.445 93.0552C101.613 93.0474 99.9689 91.9341 99.2853 90.231C99.2735 90.1959 99.2579 90.1646 99.2423 90.1295C98.5118 88.4381 98.879 86.4693 100.176 85.1568L101.035 84.2974L99.3048 82.5669L98.4493 83.4263C97.1329 84.7193 95.1641 85.0904 93.4688 84.3599C93.4336 84.3442 93.4024 84.3325 93.3672 84.3169C91.668 83.6294 90.5547 81.9849 90.5469 80.1528V78.9419H88.1016V80.1528C88.0977 81.9848 86.9805 83.6333 85.2813 84.3169C85.2462 84.3286 85.211 84.3442 85.1798 84.3599C83.4845 85.0903 81.5157 84.7231 80.2032 83.4263L79.3477 82.5708L77.6172 84.3013L78.4727 85.1568V85.1529C79.7696 86.4693 80.1407 88.4381 79.4063 90.1295C79.3945 90.1646 79.3789 90.1959 79.3633 90.231V90.2349C78.6797 91.9341 77.0352 93.0474 75.2031 93.0552H73.9922V95.5005H75.2031C77.0351 95.5044 78.6797 96.6216 79.3633 98.3169C79.3789 98.3521 79.3906 98.3872 79.4063 98.4185V98.4224C80.1367 100.118 79.7695 102.087 78.4727 103.399L77.6172 104.254L79.3477 105.985L80.2071 105.126H80.2032C81.5196 103.833 83.4844 103.461 85.1798 104.196C85.2149 104.208 85.2462 104.223 85.2813 104.239V104.235C86.9805 104.919 88.0977 106.567 88.1016 108.395V109.61H90.5469V108.399C90.5547 106.567 91.668 104.919 93.3672 104.235C93.4024 104.223 93.4336 104.208 93.4688 104.192V104.196C95.1641 103.462 97.1329 103.833 98.4493 105.129L99.3048 105.985L101.035 104.254L100.18 103.399H100.176C98.879 102.086 98.5118 100.118 99.2423 98.4224C99.254 98.3872 99.2696 98.356 99.2853 98.3208C99.9689 96.6216 101.613 95.5044 103.445 95.5005H104.656V93.0552L103.445 93.0552ZM89.3245 101.11C86.5628 101.11 84.0667 99.4458 83.012 96.8911C81.9534 94.3364 82.5354 91.3989 84.4925 89.4419C86.4456 87.4888 89.387 86.9028 91.9417 87.9614C94.4925 89.02 96.1605 91.5122 96.1605 94.2778C96.1526 98.0473 93.0979 101.106 89.3245 101.11Z" fill="black"/>
<path d="M94.2773 94.2769C94.2773 100.878 84.3711 100.878 84.3711 94.2769C84.3711 87.6714 94.2773 87.6714 94.2773 94.2769Z" fill="black"/>
</svg>
