<svg width="110" height="135" viewBox="0 0 110 135" fill="none" xmlns="http://www.w3.org/2000/svg">
<path fill-rule="evenodd" clip-rule="evenodd" d="M41.5935 85.6843H85.8785C86.5309 85.6843 87.0621 85.1531 87.0621 84.5007C87.0621 83.8484 86.5309 83.3171 85.8785 83.3171H41.5935C40.9412 83.3171 40.4099 83.8484 40.4099 84.5007C40.4099 85.1491 40.9451 85.6843 41.5935 85.6843ZM59.4175 23.3873C59.9175 23.3873 60.3707 23.5904 60.6987 23.9225L60.7417 23.9615C61.0464 24.2857 61.2339 24.7232 61.2339 25.2037V32.3209L45.7999 32.317C44.9015 32.317 44.0421 32.6725 43.4054 33.3053L43.4015 33.3092C42.7648 33.9459 42.4132 34.8053 42.4132 35.7037V37.6685L37.464 43.6646L36.9406 44.2974V53.4615L36.9445 53.5201C37.0148 54.9849 37.7453 56.2974 38.8586 57.2349C39.6906 57.9341 40.6945 58.3911 41.7531 58.6021V81.3131H41.6007C39.8468 81.3131 38.4171 82.7428 38.4171 84.4967C38.4171 86.2506 39.8468 87.6803 41.6007 87.6803H61.2377V94.7936C61.2377 95.2936 61.0346 95.7467 60.7065 96.0788L60.7026 96.0749C60.3745 96.403 59.9213 96.6101 59.4214 96.6101L26.6634 96.614C26.1634 96.614 25.7103 96.4109 25.3822 96.0788L25.3392 96.0358C25.0345 95.7116 24.8509 95.278 24.8509 94.7975V25.2035C24.8509 24.7035 25.0541 24.2504 25.3822 23.9223V23.9184L25.3861 23.9223C25.7142 23.5942 26.1712 23.3872 26.6673 23.3872L59.4175 23.3873ZM26.8085 100C25.3397 100 24.0038 99.3987 23.0312 98.43C22.0625 97.4613 21.4609 96.1253 21.4609 94.6566L21.4648 25.3476C21.4648 23.8788 22.0664 22.5429 23.0351 21.5742C24.0039 20.6055 25.3398 20.0039 26.8124 20.0039L59.2694 20C60.7382 20 62.0741 20.6016 63.0428 21.5703C64.0115 22.539 64.6131 23.875 64.6131 25.3437V32.3164H63.2264V25.1992C63.2264 24.1836 62.8202 23.2539 62.1639 22.5664C62.1444 22.543 62.1249 22.5234 62.1054 22.5039C61.4139 21.8125 60.4609 21.3828 59.4101 21.3828L26.6641 21.3867C25.6133 21.3867 24.6602 21.8164 23.9688 22.5078L23.9727 22.5117C23.2812 23.2031 22.8516 24.1601 22.8516 25.207V94.805C22.8516 95.8206 23.2578 96.7503 23.9141 97.4378C23.9336 97.4613 23.9531 97.4808 23.9727 97.5003C24.6641 98.1917 25.6172 98.6214 26.668 98.6214H59.4179C60.4687 98.6214 61.4219 98.1917 62.1133 97.5003L62.1093 97.4964H62.1133C62.8047 96.805 63.2344 95.8519 63.2344 94.805V87.6917H64.6211V94.6644C64.6211 96.1136 64.039 97.43 63.1016 98.391L63.0508 98.4379C62.082 99.4066 60.7461 100.008 59.2774 100.008L26.8085 100ZM34.8319 94.2972H51.2499C51.8007 94.2972 52.2499 93.848 52.2499 93.2972C52.2499 92.7464 51.8007 92.2972 51.2499 92.2972H34.8319C34.2812 92.2972 33.8319 92.7464 33.8319 93.2972C33.8319 93.8519 34.2812 94.2972 34.8319 94.2972ZM38.5467 28.6602H47.535C48.0858 28.6602 48.535 28.211 48.535 27.6602C48.535 27.1094 48.0858 26.6602 47.535 26.6602H38.5467C37.996 26.6602 37.5467 27.1094 37.5467 27.6602C37.5467 28.211 37.992 28.6602 38.5467 28.6602ZM44.41 37.0938H83.023V35.7071C83.023 35.3282 82.8668 34.9805 82.6168 34.7266C82.3668 34.4766 82.0191 34.3204 81.6363 34.3204L45.8003 34.3165C45.4175 34.3165 45.0698 34.4727 44.8198 34.7188L44.8159 34.7227C44.5659 34.9727 44.4136 35.3204 44.4136 35.7032L44.41 37.0938ZM38.9373 53.4028V53.4301C38.9803 54.3091 39.4334 55.1098 40.1404 55.7035C40.9022 56.3403 41.949 56.7347 43.1052 56.7347C44.281 56.7347 45.3435 56.3285 46.1052 55.6722C46.824 55.0551 47.2732 54.2114 47.2732 53.2934V50.9339C47.2693 50.8871 47.2654 50.8363 47.2615 50.7933C47.2576 50.7465 47.2537 50.6996 47.2576 50.6527L47.2107 45.6644H38.9373V53.4028ZM40.0545 43.6684H47.4959L50.0271 39.0942H43.8318L40.0545 43.6684ZM49.7811 43.6684H57.6366L58.5546 39.0942H52.3124L49.7811 43.6684ZM59.6717 43.6684H67.8006L66.8866 39.0942H60.5897L59.6717 43.6684ZM69.8397 43.6684H77.6952L75.164 39.0942H68.9218L69.8397 43.6684ZM79.9767 43.6684L77.4455 39.0942H83.6408L87.4181 43.6684H79.9767ZM88.5353 45.6684H80.2619L80.2151 50.6684C80.2151 50.7114 80.2151 50.7504 80.2112 50.7934C80.2072 50.8364 80.2033 50.8832 80.1994 50.9379V53.2973C80.1994 54.2153 80.6447 55.059 81.3674 55.6762C82.1292 56.3325 83.1916 56.7387 84.3713 56.7387C85.5275 56.7387 86.5783 56.3442 87.3361 55.7075C88.0432 55.1138 88.4963 54.313 88.5392 53.438L88.5353 53.4029V45.6684ZM78.2693 45.6684H69.9216L69.906 47.0239C69.8826 48.7075 69.863 50.3989 69.863 52.5278V53.0942C69.863 54.0122 70.3084 54.8559 71.031 55.4731C71.7928 56.1294 72.8552 56.5356 74.0349 56.5356C75.1951 56.5356 76.2419 56.1411 76.9997 55.5044C77.7068 54.9107 78.1599 54.1099 78.2028 53.2349V51.0747C78.2028 51.0278 78.2068 50.9458 78.2107 50.8325C78.2146 50.77 78.2185 50.6997 78.2263 50.6294L78.2693 45.6684ZM67.9293 45.6684H59.5426L59.609 52.52V52.5278H59.6129V53.0942C59.6129 53.2114 59.609 53.3286 59.6012 53.4419C59.6481 54.3169 60.0973 55.1177 60.7965 55.7114C61.5465 56.3442 62.5856 56.7348 63.7379 56.7348C64.8941 56.7348 65.9293 56.3442 66.6793 55.7114C67.3786 55.1215 67.8277 54.3247 67.8746 53.4536C67.8668 53.3364 67.8629 53.2153 67.8629 53.0942V52.5278C67.8629 50.9809 67.8903 48.9926 67.9137 47.0005L67.9293 45.6684ZM57.5503 45.6684H49.2026L49.2495 50.6254C49.2573 50.6957 49.2612 50.766 49.2651 50.8324V50.8363C49.269 50.9496 49.273 51.0317 49.273 51.0746V53.2348C49.3159 54.1098 49.769 54.9106 50.4761 55.5043C51.2378 56.141 52.2847 56.5355 53.4409 56.5355C54.6167 56.5355 55.6792 56.1293 56.4409 55.473C57.1596 54.8558 57.6089 54.0121 57.6089 53.0941V52.5277H57.6128L57.5503 45.6684ZM47.3353 81.3164V64.2574H58.1943V81.3164H83.7293L83.7254 58.7074C82.3856 58.5824 81.0887 58.0746 80.0613 57.1918C79.7059 56.8832 79.3894 56.5395 79.1238 56.1645C78.8777 56.4809 78.5926 56.7739 78.2801 57.0395C77.0965 58.0356 75.5692 58.5395 74.0301 58.5395C72.4676 58.5395 70.9168 58.0161 69.7254 56.9926C69.4363 56.7465 69.1785 56.4731 68.948 56.1801C68.6707 56.5707 68.3426 56.9301 67.9715 57.2426C66.7918 58.2387 65.2723 58.7387 63.7371 58.7387C62.2019 58.7387 60.6824 58.2348 59.5066 57.2426C59.1355 56.9262 58.8035 56.5707 58.53 56.1801C58.2996 56.4731 58.0417 56.7465 57.7527 56.9926C56.5613 58.016 55.0105 58.5395 53.448 58.5395C51.9089 58.5395 50.3816 58.0317 49.198 57.0395C48.8855 56.7778 48.6003 56.4848 48.3542 56.1645C48.0886 56.5395 47.7722 56.8872 47.4167 57.1957C46.3894 58.0785 45.0925 58.5902 43.7526 58.7113V81.3163L47.3353 81.3164ZM64.4603 75.625H78.0733C79.21 75.625 80.1397 74.6953 80.1397 73.5586V66.3242C80.1397 65.1875 79.21 64.2578 78.0733 64.2578H64.4603C63.3236 64.2578 62.3939 65.1875 62.3939 66.3242V73.5586C62.3939 74.6953 63.3236 75.625 64.4603 75.625Z" fill="black"/>
</svg>
