<svg width="110" height="135" viewBox="0 0 110 135" fill="none" xmlns="http://www.w3.org/2000/svg">
<path d="M37.2767 71.3276C28.9173 68.6518 20.1637 69.5932 12.9097 74.0385C7.9995 76.9955 2.9566 70.6518 6.9292 66.5815C7.53857 65.9838 8.2573 65.5659 9.0972 65.3471C12.0933 64.5737 15.187 64.1948 18.2495 64.1948C25.4097 64.1948 32.4445 66.2573 37.9915 70.1206C37.7571 70.519 37.5228 70.9409 37.2767 71.3276ZM35.4759 43.0696C40.6439 45.7532 45.1712 50.0384 48.9249 55.8426C49.714 55.0106 50.5616 54.159 51.4054 53.3738C45.7765 49.3191 41.5343 44.616 38.7684 39.3538C38.7411 39.2796 34.37 31.0921 29.6004 26.9048C27.827 25.4439 27.0184 24.8423 25.4793 25.5884C22.7762 26.9009 22.4051 27.2134 21.1121 29.9282C20.5379 31.4087 20.366 31.6196 22.3855 34.0649C26.0496 38.1743 35.3779 43.0305 35.4759 43.0696ZM68.3549 40.9134C67.9252 34.9446 69.3588 28.9644 72.476 23.8824C76.0385 17.4097 66.0385 13.1284 63.7846 20.0855C61.8588 27.5855 62.3862 35.7455 65.2065 42.7415C66.2417 42.1204 67.3081 41.5188 68.3549 40.9134ZM84.2889 47.2181C83.4217 44.6712 82.5272 41.6908 79.7186 40.6829C76.3709 39.2181 73.4256 41.3548 70.4295 42.8665C62.6834 47.0306 55.6835 52.4915 49.7225 58.9755C44.242 64.9247 39.6715 71.8235 36.2965 79.0305C34.6676 82.3078 36.4254 86.6086 39.9176 87.761L42.7106 88.7922C50.8239 70.4132 65.9179 55.3311 84.2889 47.2181ZM88.453 58.7301C87.285 55.5309 86.1874 52.4918 85.2108 49.7926C67.5898 57.5856 53.0818 72.0896 45.2928 89.7106L54.2147 92.9528C61.0428 77.7768 73.274 65.5661 88.453 58.7301ZM104.18 102.066C103.422 99.9684 102.481 97.3903 101.711 95.2731C97.512 98.3669 93.8792 102.023 90.7702 106.214L97.5514 108.667C99.4889 109.37 101.524 108.925 102.973 107.46C104.426 106.011 104.871 103.992 104.18 102.066ZM100.75 92.6169C99.7347 89.7849 98.6487 86.8278 97.5355 83.7888C89.9847 88.2966 83.7815 94.4878 79.2855 102.055L88.1136 105.254C91.6331 100.356 95.8672 96.1328 100.75 92.6169ZM96.6019 81.1869C94.1878 74.4955 91.7386 67.8319 89.3871 61.2809C74.9461 67.8512 63.3091 79.4449 56.7781 93.8899L76.6841 101.105C81.52 92.8274 88.3249 86.0229 96.6019 81.1869ZM47.2229 26.5539C47.2151 26.3195 47.2229 26.0851 47.2229 25.8547C47.2229 25.5617 47.2229 25.2648 47.2346 24.9719C47.2424 24.7492 47.2659 24.5305 47.2815 24.3078C47.3049 23.9953 47.3323 23.6828 47.3713 23.3703C47.3948 23.175 47.426 22.9836 47.4534 22.7883C47.5042 22.4484 47.5628 22.1086 47.6331 21.7727C47.6682 21.6008 47.7073 21.4328 47.7463 21.261C47.8284 20.9094 47.9221 20.5617 48.0198 20.2141C48.0667 20.05 48.1135 19.8898 48.1643 19.7258C48.2698 19.3898 48.3909 19.0617 48.512 18.7336C48.5784 18.5539 48.6448 18.3781 48.7151 18.1984C48.8245 17.925 48.9534 17.6594 49.0745 17.3937C49.1839 17.1633 49.2854 16.9289 49.4026 16.6984C49.426 16.6555 49.4495 16.6164 49.4729 16.5734C49.7346 16.1789 49.9729 15.7609 50.1565 15.3312C50.5667 14.6828 50.6526 13.9835 50.5159 13.3351C50.4299 12.6554 50.0862 12.0187 49.3362 11.5031C49.2346 11.4289 49.1174 11.3859 49.008 11.3312C48.9612 11.3078 48.9143 11.2805 48.8674 11.257C48.7854 11.2219 48.7034 11.1828 48.6174 11.1555C48.0393 10.9523 47.3908 10.9328 46.7346 11.2062C46.3479 11.3508 46.0159 11.5812 45.7346 11.8625C45.7034 11.8937 45.6604 11.9211 45.6292 11.9523C45.6174 11.9641 45.6135 11.9758 45.6018 11.9875C45.3128 12.3078 45.0979 12.6945 44.9963 13.1398C43.4768 19.05 45.0901 24.2058 47.3283 28.0968C47.2697 27.5851 47.2385 27.0696 47.2229 26.5539ZM12.0709 52.9409C16.9264 50.7456 22.3949 50.3628 27.5439 51.7886C23.9384 48.8863 19.0009 46.2964 12.9389 46.2964C11.0483 46.3276 8.5522 46.2417 7.5678 48.2612C5.9936 51.062 9.1725 54.3745 12.0709 52.9409ZM19.692 88.3709C20.4381 89.5779 20.8873 90.949 21.0084 92.3709C22.2154 91.6248 23.5865 91.1795 24.9967 91.0545C24.2662 89.8357 23.8053 88.4647 23.6803 87.0545C22.4733 87.8006 21.1022 88.2498 19.692 88.3709ZM92.821 26.3239C91.4108 26.1872 90.0398 25.7419 88.821 25.0075C88.6999 26.4177 88.2507 27.7887 87.5202 28.9958C88.9304 29.1169 90.3014 29.5661 91.5085 30.3122C91.6257 28.902 92.0749 27.531 92.821 26.3239ZM44.942 106.176C45.5397 106.285 46.1373 106.496 46.6764 106.746C46.7858 106.149 46.9733 105.578 47.2467 105.024C46.6569 104.922 46.0592 104.719 45.5123 104.453C45.4029 105.051 45.2115 105.633 44.942 106.176ZM102.258 49.8639C101.66 49.7428 101.078 49.5514 100.524 49.2819C100.414 49.8912 100.227 50.4733 99.9533 51.0163C100.543 51.1295 101.141 51.317 101.688 51.5866C101.801 50.9928 101.992 50.403 102.258 49.8639ZM12.559 19.4889C12.1254 18.8131 11.8012 18.0553 11.6098 17.2662C10.9262 17.7076 10.1606 18.024 9.37538 18.2154C9.80897 18.8873 10.141 19.6607 10.3246 20.4381C11.016 20.0045 11.7738 19.6959 12.559 19.4889Z" fill="black"/>
</svg>
