<svg width="100" height="125" viewBox="0 0 100 125" fill="none" xmlns="http://www.w3.org/2000/svg">
<path d="M65.2793 56.064C65.1793 60.654 58.3773 64.357 50.0003 64.357C41.6213 64.357 34.8203 60.654 34.7213 56.064C21.9033 57.236 11.8633 68.01 11.8633 81.131C11.8633 95.035 23.1353 95 37.0373 95H62.9633C76.8653 95 88.1373 95.035 88.1373 81.131C88.1373 68.01 78.0993 57.236 65.2793 56.064Z" fill="black"/>
<path d="M50.0003 55.2729C41.4963 55.2729 34.4693 46.0539 33.3403 34.0869H31.0283C32.3133 47.7169 40.3143 58.2189 50.0003 58.2189C59.6843 58.2189 67.6883 47.7169 68.9723 34.0879H66.6593C65.5293 46.0549 58.5043 55.2729 50.0003 55.2729Z" fill="black"/>
<path d="M30.1253 31.252H69.8743C71.4243 31.252 72.6783 29.997 72.6783 28.449C72.6783 26.9 71.4243 25.645 69.8743 25.645H69.1113C69.1113 18.197 64.8453 11.749 58.6293 8.595L57.0453 17.574C56.9203 18.285 56.3033 18.785 55.6043 18.785C55.5203 18.785 55.4343 18.778 55.3483 18.764C54.5513 18.623 54.0203 17.864 54.1603 17.067L55.9693 6.808C55.2903 5.723 54.0863 5 52.7113 5H47.2873C45.9143 5 44.7113 5.723 44.0313 6.808L45.8403 17.067C45.9813 17.864 45.4493 18.624 44.6523 18.764C44.5663 18.779 44.4803 18.785 44.3963 18.785C43.6973 18.785 43.0783 18.286 42.9553 17.574L41.3713 8.596C35.1523 11.748 30.8893 18.197 30.8893 25.645H30.1253C28.5763 25.645 27.3223 26.9 27.3223 28.449C27.3223 29.997 28.5763 31.252 30.1253 31.252Z" fill="black"/>
</svg>
