<svg width="110" height="135" viewBox="0 0 110 135" fill="none" xmlns="http://www.w3.org/2000/svg">
<path d="M96.0426 58.4915C74.6676 52.5892 70.2226 48.1395 64.3196 26.7685C64.1321 26.0888 63.5149 25.6201 62.8118 25.6201C62.1087 25.6201 61.4915 26.0889 61.304 26.7685C55.4017 48.1435 50.952 52.5885 29.581 58.4915C28.9013 58.679 28.4365 59.2962 28.4365 59.9993C28.4365 60.7024 28.9053 61.3196 29.581 61.5071C50.956 67.4094 55.401 71.8591 61.304 93.2301C61.4915 93.9098 62.1087 94.3785 62.8118 94.3785C63.5149 94.3785 64.1321 93.9098 64.3196 93.2301C70.2219 71.8551 74.6716 67.4101 96.0426 61.5071C96.7223 61.3196 97.1871 60.7024 97.1871 59.9993C97.1871 59.2962 96.7184 58.679 96.0426 58.4915Z" fill="black"/>
<path d="M28.492 51.0387C28.6795 51.7184 29.2967 52.1871 29.9998 52.1871C30.7029 52.1871 31.3201 51.7183 31.5076 51.0387C34.242 41.1403 36.1443 39.2377 46.0426 36.5037C46.7223 36.3162 47.1871 35.699 47.1871 34.9959C47.1871 34.2928 46.7183 33.6756 46.0426 33.4881C36.1442 30.7537 34.2416 28.8553 31.5076 18.9531C31.3201 18.2734 30.7029 17.8047 29.9998 17.8047C29.2967 17.8047 28.6795 18.2734 28.492 18.9531C25.7576 28.8515 23.8553 30.7541 13.957 33.4881C13.2773 33.6756 12.8125 34.2928 12.8125 34.9959C12.8125 35.699 13.2812 36.3162 13.957 36.5037C23.8554 39.2381 25.758 41.1365 28.492 51.0387Z" fill="black"/>
<path d="M48.3868 85.8365C40.0821 83.5435 38.4884 81.9498 36.1958 73.6455C36.0083 72.9658 35.3911 72.4971 34.688 72.4971C33.9849 72.4971 33.3677 72.9658 33.1802 73.6455C30.8872 81.9502 29.2935 83.5439 20.9892 85.8365C20.3095 86.024 19.8447 86.6412 19.8447 87.3443C19.8447 88.0474 20.3135 88.6646 20.9892 88.8521C29.2939 91.1451 30.8876 92.7388 33.1802 101.043C33.3677 101.723 33.9849 102.191 34.688 102.191C35.3911 102.191 36.0083 101.723 36.1958 101.043C38.4888 92.7384 40.0825 91.1447 48.3868 88.8521C49.0665 88.6646 49.5313 88.0474 49.5313 87.3443C49.5313 86.6412 49.0626 86.024 48.3868 85.8365Z" fill="black"/>
</svg>
